<svg width="1080" height="1080" viewBox="0 0 400 400" xmlns="http://www.w3.org/2000/svg">
  <defs>
    <mask id="inner-layer-ring-cutout">
      <rect x="0" y="0" width="400" height="400" fill="white" />
      <circle cx="200" cy="200" r="115" fill="black" stroke="none"></circle>
      <circle opacity="1" cx="200" cy="200" r="85" fill="white" stroke="black" stroke-opacity="0.5" stroke-width="20" stroke-dasharray="45" stroke-linejoin="round"></circle>
      <circle cx="200" cy="200" r="55" fill="black" stroke="white" stroke-width="10" stroke-opacity="0.5"></circle>
    </mask>
  </defs>
  <!-- SVG Icon -->
  <g class="outer-layer">
    <circle cx="200" cy="200" r="160" fill="lime" stroke="lightgreen" stroke-width="2.25" mask="url(#inner-layer-ring-cutout)"></circle>
    <circle opacity="0.85" cx="200" cy="200" r="137.5" fill="transparent" stroke="skyblue" stroke-width="40" stroke-dasharray="2" stroke-linejoin="round" shape-rendering="precise"></circle>
    <!---->
    <path transform="translate(150, 25) rotate(0)" fill="skyblue" stroke="lightgreen" stroke-width="5" stroke-linejoin="round" d="
    M 0 0
    L 50 75
    L 50 75
    L 100 0
    L 50 10
    Z" />
    <!---->
    <path transform="translate(25, 160) rotate(-90, 45, 45)" fill="skyblue" stroke="lightgreen" stroke-width="5" stroke-linejoin="round" d="
    M 0 0
    L 50 75
    L 50 75
    L 100 0
    L 50 10
    Z" />
    <!---->
    <path transform="translate(75, 192.5) rotate(180, 87.5, 90)" fill="skyblue" stroke="lightgreen" stroke-width="5" stroke-linejoin="round" d="
    M 0 0
    L 50 75
    L 50 75
    L 100 0
    L 50 10
    Z" />
    <!---->
    <path transform="translate(292.5, 160) rotate(90, 45, 37.5)" fill="skyblue" stroke="lightgreen" stroke-width="5" stroke-linejoin="round" d="
    M 0 0
    L 50 75
    L 50 75
    L 100 0
    L 50 10
    Z" />
  </g>
  <style>
    .outer-layer>path {
        fill-opacity: 0.75;
    }
  </style>
</svg>
